<?xml version="1.0" encoding="utf-8"?>
<!-- Generator: Adobe Illustrator 24.1.0, SVG Export Plug-In . SVG Version: 6.00 Build 0)  -->
<svg version="1.1" id="Слой_1" xmlns="http://www.w3.org/2000/svg" xmlns:xlink="http://www.w3.org/1999/xlink" x="0px" y="0px"
	 viewBox="0 0 595.28 841.89" style="enable-background:new 0 0 595.28 841.89;" xml:space="preserve">
<style type="text/css">
	.st0{fill:#222221;}
</style>
<g id="XMLID_2392_">
	<g id="XMLID_2393_">
		<path id="XMLID_2398_" class="st0" d="M297.51,410.21c3.47,0,3.88,0.01,5.25,0.08c1.27,0.06,1.96,0.27,2.41,0.45
			c0.61,0.24,1.04,0.52,1.49,0.97c0.46,0.46,0.74,0.89,0.97,1.49c0.18,0.46,0.39,1.15,0.45,2.41c0.06,1.37,0.08,1.78,0.08,5.25
			c0,3.47-0.01,3.88-0.08,5.25c-0.06,1.27-0.27,1.96-0.45,2.41c-0.24,0.61-0.52,1.04-0.97,1.5c-0.45,0.45-0.89,0.74-1.49,0.97
			c-0.46,0.18-1.15,0.39-2.41,0.45c-1.37,0.06-1.78,0.08-5.25,0.08c-3.47,0-3.88-0.01-5.25-0.08c-1.27-0.06-1.96-0.27-2.41-0.45
			c-0.61-0.24-1.04-0.52-1.5-0.97c-0.45-0.46-0.74-0.89-0.97-1.5c-0.18-0.46-0.39-1.15-0.45-2.41c-0.06-1.37-0.08-1.78-0.08-5.25
			c0-3.47,0.01-3.88,0.08-5.25c0.06-1.27,0.27-1.96,0.45-2.41c0.24-0.61,0.52-1.04,0.97-1.49c0.46-0.46,0.89-0.74,1.5-0.97
			c0.46-0.18,1.15-0.39,2.41-0.45C293.63,410.23,294.04,410.21,297.51,410.21 M297.51,407.87c-3.53,0-3.97,0.02-5.36,0.08
			c-1.38,0.06-2.33,0.28-3.16,0.6c-0.86,0.33-1.58,0.78-2.3,1.5c-0.72,0.72-1.17,1.45-1.5,2.3c-0.32,0.83-0.54,1.77-0.6,3.16
			c-0.06,1.39-0.08,1.83-0.08,5.36c0,3.53,0.01,3.97,0.08,5.36c0.06,1.38,0.28,2.33,0.6,3.16c0.33,0.85,0.78,1.58,1.5,2.3
			c0.72,0.72,1.45,1.17,2.3,1.5c0.83,0.32,1.77,0.54,3.16,0.6c1.39,0.06,1.83,0.08,5.36,0.08c3.53,0,3.97-0.01,5.36-0.08
			c1.38-0.06,2.33-0.28,3.16-0.6c0.86-0.33,1.58-0.78,2.3-1.5c0.72-0.72,1.17-1.45,1.5-2.3c0.32-0.83,0.54-1.77,0.6-3.16
			c0.06-1.39,0.08-1.83,0.08-5.36c0-3.53-0.01-3.97-0.08-5.36c-0.06-1.38-0.28-2.33-0.6-3.16c-0.33-0.85-0.78-1.58-1.5-2.3
			c-0.72-0.72-1.45-1.17-2.3-1.5c-0.83-0.32-1.77-0.54-3.16-0.6C301.49,407.88,301.04,407.87,297.51,407.87"/>
		<path id="XMLID_2395_" class="st0" d="M297.51,414.2c-3.69,0-6.68,2.99-6.68,6.68s2.99,6.68,6.68,6.68c3.69,0,6.68-2.99,6.68-6.68
			S301.2,414.2,297.51,414.2 M297.51,425.21c-2.39,0-4.33-1.94-4.33-4.33c0-2.39,1.94-4.33,4.33-4.33c2.39,0,4.33,1.94,4.33,4.33
			C301.85,423.27,299.91,425.21,297.51,425.21"/>
		<path id="XMLID_2394_" class="st0" d="M306.01,413.93c0,0.86-0.7,1.56-1.56,1.56c-0.86,0-1.56-0.7-1.56-1.56s0.7-1.56,1.56-1.56
			C305.32,412.37,306.01,413.07,306.01,413.93"/>
	</g>
</g>
</svg>
