<?xml version="1.0" encoding="utf-8"?>
<!-- Generator: Adobe Illustrator 24.1.0, SVG Export Plug-In . SVG Version: 6.00 Build 0)  -->
<svg version="1.1" id="Слой_1" xmlns="http://www.w3.org/2000/svg" xmlns:xlink="http://www.w3.org/1999/xlink" x="0px" y="0px"
	 viewBox="0 0 595.28 841.89" style="enable-background:new 0 0 595.28 841.89;" xml:space="preserve">
<style type="text/css">
	.st0{fill:#222221;}
</style>
<g id="XMLID_2407_">
	<path id="XMLID_2408_" class="st0" d="M284.88,428.81c2.29,1.47,5.02,2.33,7.95,2.33c9.63,0,15.06-8.13,14.74-15.42
		c1.01-0.73,1.89-1.64,2.59-2.68c-0.93,0.41-1.93,0.69-2.98,0.82c1.07-0.64,1.89-1.66,2.28-2.87c-1,0.59-2.11,1.03-3.29,1.26
		c-0.95-1.01-2.29-1.64-3.78-1.64c-3.35,0-5.81,3.12-5.05,6.37c-4.31-0.22-8.13-2.28-10.69-5.42c-1.36,2.33-0.7,5.38,1.6,6.92
		c-0.85-0.03-1.65-0.26-2.35-0.65c-0.06,2.4,1.67,4.65,4.16,5.15c-0.73,0.2-1.53,0.24-2.34,0.09c0.66,2.06,2.57,3.56,4.84,3.6
		C290.37,428.37,287.63,429.14,284.88,428.81z"/>
</g>
</svg>
